<mxfile host="app.diagrams.net" modified="2022-01-29T05:37:15.506Z" agent="5.0 (Windows NT 10.0; Win64; x64) AppleWebKit/537.36 (KHTML, like Gecko) Chrome/97.0.4692.99 Safari/537.36" etag="zBc6jDPzR5oZzM2h-yUF" version="15.2.9" type="github">
  <diagram id="kgpKYQtTHZ0yAKxKKP6v" name="Page-1">
    <mxGraphModel dx="1038" dy="571" grid="1" gridSize="10" guides="1" tooltips="1" connect="1" arrows="1" fold="1" page="1" pageScale="1" pageWidth="850" pageHeight="1100" math="0" shadow="0">
      <root>
        <mxCell id="0" />
        <mxCell id="1" parent="0" />
        <mxCell id="3nuBFxr9cyL0pnOWT2aG-1" value="User&#xa;(renter)" style="shape=umlLifeline;perimeter=lifelinePerimeter;container=1;collapsible=0;recursiveResize=0;rounded=0;shadow=0;strokeWidth=1;" parent="1" vertex="1">
          <mxGeometry x="120" y="80" width="100" height="870" as="geometry" />
        </mxCell>
        <mxCell id="3nuBFxr9cyL0pnOWT2aG-5" value="App&#xa;Auth form" style="shape=umlLifeline;perimeter=lifelinePerimeter;container=1;collapsible=0;recursiveResize=0;rounded=0;shadow=0;strokeWidth=1;" parent="1" vertex="1">
          <mxGeometry x="300" y="80" width="100" height="890" as="geometry" />
        </mxCell>
        <mxCell id="3nuBFxr9cyL0pnOWT2aG-6" value="" style="points=[];perimeter=orthogonalPerimeter;rounded=0;shadow=0;strokeWidth=1;" parent="3nuBFxr9cyL0pnOWT2aG-5" vertex="1">
          <mxGeometry x="45" y="80" width="10" height="280" as="geometry" />
        </mxCell>
        <mxCell id="Zf3G7hdso3-D3wc9qhFH-11" value="" style="endArrow=classic;html=1;" edge="1" parent="3nuBFxr9cyL0pnOWT2aG-5" source="3nuBFxr9cyL0pnOWT2aG-6">
          <mxGeometry relative="1" as="geometry">
            <mxPoint x="60" y="110" as="sourcePoint" />
            <mxPoint x="56" y="141" as="targetPoint" />
            <Array as="points">
              <mxPoint x="100" y="110" />
              <mxPoint x="100" y="141" />
            </Array>
          </mxGeometry>
        </mxCell>
        <mxCell id="Zf3G7hdso3-D3wc9qhFH-12" value="check if consent is ticked" style="edgeLabel;resizable=0;html=1;align=center;verticalAlign=middle;" connectable="0" vertex="1" parent="Zf3G7hdso3-D3wc9qhFH-11">
          <mxGeometry relative="1" as="geometry">
            <mxPoint x="25" as="offset" />
          </mxGeometry>
        </mxCell>
        <mxCell id="3nuBFxr9cyL0pnOWT2aG-9" value="ask user to tick consent" style="verticalAlign=bottom;endArrow=block;shadow=0;strokeWidth=1;entryX=1.067;entryY=0.44;entryDx=0;entryDy=0;entryPerimeter=0;dashed=1;" parent="1" source="3nuBFxr9cyL0pnOWT2aG-6" target="3nuBFxr9cyL0pnOWT2aG-4" edge="1">
          <mxGeometry relative="1" as="geometry">
            <mxPoint x="240" y="200" as="sourcePoint" />
            <mxPoint x="178" y="227" as="targetPoint" />
            <Array as="points">
              <mxPoint x="345" y="230" />
            </Array>
          </mxGeometry>
        </mxCell>
        <mxCell id="Zf3G7hdso3-D3wc9qhFH-1" value="MNO Auth&#xa;service" style="shape=umlLifeline;perimeter=lifelinePerimeter;container=1;collapsible=0;recursiveResize=0;rounded=0;shadow=0;strokeWidth=1;" vertex="1" parent="1">
          <mxGeometry x="820" y="80" width="100" height="890" as="geometry" />
        </mxCell>
        <mxCell id="Zf3G7hdso3-D3wc9qhFH-2" value="" style="points=[];perimeter=orthogonalPerimeter;rounded=0;shadow=0;strokeWidth=1;" vertex="1" parent="Zf3G7hdso3-D3wc9qhFH-1">
          <mxGeometry x="45" y="80" width="10" height="440" as="geometry" />
        </mxCell>
        <mxCell id="Zf3G7hdso3-D3wc9qhFH-4" value="Auth options" style="swimlane;childLayout=stackLayout;resizeParent=1;resizeParentMax=0;horizontal=0;startSize=20;horizontalStack=0;" vertex="1" parent="1">
          <mxGeometry x="50" y="150" width="1360" height="1260" as="geometry" />
        </mxCell>
        <mxCell id="Zf3G7hdso3-D3wc9qhFH-5" value="phone number" style="swimlane;startSize=20;horizontal=0;" vertex="1" parent="Zf3G7hdso3-D3wc9qhFH-4">
          <mxGeometry x="20" width="1340" height="910" as="geometry" />
        </mxCell>
        <mxCell id="3nuBFxr9cyL0pnOWT2aG-4" value="" style="points=[];perimeter=orthogonalPerimeter;rounded=0;shadow=0;strokeWidth=1;" parent="Zf3G7hdso3-D3wc9qhFH-5" vertex="1">
          <mxGeometry x="95" y="20" width="10" height="140" as="geometry" />
        </mxCell>
        <mxCell id="3nuBFxr9cyL0pnOWT2aG-8" value="type in phone number" style="verticalAlign=bottom;endArrow=block;shadow=0;strokeWidth=1;" parent="Zf3G7hdso3-D3wc9qhFH-5" target="3nuBFxr9cyL0pnOWT2aG-6" edge="1">
          <mxGeometry x="0.0303" relative="1" as="geometry">
            <mxPoint x="105" y="30" as="sourcePoint" />
            <mxPoint x="270" y="30" as="targetPoint" />
            <mxPoint as="offset" />
          </mxGeometry>
        </mxCell>
        <mxCell id="Zf3G7hdso3-D3wc9qhFH-16" value="User ticks consent" style="verticalAlign=bottom;endArrow=block;shadow=0;strokeWidth=1;entryX=0.067;entryY=0.123;entryDx=0;entryDy=0;entryPerimeter=0;" edge="1" parent="Zf3G7hdso3-D3wc9qhFH-5">
          <mxGeometry x="0.0303" relative="1" as="geometry">
            <mxPoint x="105" y="110.32" as="sourcePoint" />
            <mxPoint x="275.6700000000001" y="109.99999999999994" as="targetPoint" />
            <mxPoint as="offset" />
          </mxGeometry>
        </mxCell>
        <mxCell id="Zf3G7hdso3-D3wc9qhFH-17" value="User clicks &quot;join&quot;" style="verticalAlign=bottom;endArrow=block;shadow=0;strokeWidth=1;entryX=0.067;entryY=0.123;entryDx=0;entryDy=0;entryPerimeter=0;" edge="1" parent="Zf3G7hdso3-D3wc9qhFH-5">
          <mxGeometry x="0.0303" relative="1" as="geometry">
            <mxPoint x="105" y="140.31999999999994" as="sourcePoint" />
            <mxPoint x="275.6700000000001" y="140" as="targetPoint" />
            <mxPoint as="offset" />
          </mxGeometry>
        </mxCell>
        <mxCell id="Zf3G7hdso3-D3wc9qhFH-20" value="" style="endArrow=classic;html=1;" edge="1" parent="Zf3G7hdso3-D3wc9qhFH-5">
          <mxGeometry relative="1" as="geometry">
            <mxPoint x="1060" y="220" as="sourcePoint" />
            <mxPoint x="1060" y="251" as="targetPoint" />
            <Array as="points">
              <mxPoint x="1109" y="220" />
              <mxPoint x="1109" y="251" />
            </Array>
          </mxGeometry>
        </mxCell>
        <mxCell id="Zf3G7hdso3-D3wc9qhFH-21" value="check sourceIP" style="edgeLabel;resizable=0;html=1;align=center;verticalAlign=middle;" connectable="0" vertex="1" parent="Zf3G7hdso3-D3wc9qhFH-20">
          <mxGeometry relative="1" as="geometry">
            <mxPoint x="25" as="offset" />
          </mxGeometry>
        </mxCell>
        <mxCell id="Zf3G7hdso3-D3wc9qhFH-40" value="/authorize&#xa;login_hint: 4860220xxxx" style="verticalAlign=bottom;endArrow=block;shadow=0;strokeWidth=1;entryX=0.067;entryY=0.123;entryDx=0;entryDy=0;entryPerimeter=0;exitX=1.024;exitY=0.497;exitDx=0;exitDy=0;exitPerimeter=0;" edge="1" parent="Zf3G7hdso3-D3wc9qhFH-5">
          <mxGeometry x="0.0303" relative="1" as="geometry">
            <mxPoint x="460" y="294.49999999999994" as="sourcePoint" />
            <mxPoint x="620.4300000000001" y="295.00000000000006" as="targetPoint" />
            <mxPoint as="offset" />
          </mxGeometry>
        </mxCell>
        <mxCell id="Zf3G7hdso3-D3wc9qhFH-45" value="" style="endArrow=classic;html=1;" edge="1" parent="Zf3G7hdso3-D3wc9qhFH-5">
          <mxGeometry relative="1" as="geometry">
            <mxPoint x="1070" y="110" as="sourcePoint" />
            <mxPoint x="1070" y="141" as="targetPoint" />
            <Array as="points">
              <mxPoint x="1119" y="110" />
              <mxPoint x="1119" y="141" />
            </Array>
          </mxGeometry>
        </mxCell>
        <mxCell id="Zf3G7hdso3-D3wc9qhFH-46" value="user input=phone number" style="edgeLabel;resizable=0;html=1;align=center;verticalAlign=middle;" connectable="0" vertex="1" parent="Zf3G7hdso3-D3wc9qhFH-45">
          <mxGeometry relative="1" as="geometry">
            <mxPoint x="25" as="offset" />
          </mxGeometry>
        </mxCell>
        <mxCell id="Zf3G7hdso3-D3wc9qhFH-47" value="" style="endArrow=classic;html=1;" edge="1" parent="Zf3G7hdso3-D3wc9qhFH-5">
          <mxGeometry relative="1" as="geometry">
            <mxPoint x="1120" y="310" as="sourcePoint" />
            <mxPoint x="1120" y="341" as="targetPoint" />
            <Array as="points">
              <mxPoint x="1169" y="310" />
              <mxPoint x="1169" y="341" />
            </Array>
          </mxGeometry>
        </mxCell>
        <mxCell id="Zf3G7hdso3-D3wc9qhFH-48" value="pick MNO auth service" style="edgeLabel;resizable=0;html=1;align=center;verticalAlign=middle;" connectable="0" vertex="1" parent="Zf3G7hdso3-D3wc9qhFH-47">
          <mxGeometry relative="1" as="geometry">
            <mxPoint x="25" as="offset" />
          </mxGeometry>
        </mxCell>
        <mxCell id="Zf3G7hdso3-D3wc9qhFH-19" value="/authorize&#xa;scope:mc_vm_match&#xa;login_hint:4860220xxxx" style="verticalAlign=bottom;endArrow=block;shadow=0;strokeWidth=1;" edge="1" parent="Zf3G7hdso3-D3wc9qhFH-5">
          <mxGeometry x="0.0303" relative="1" as="geometry">
            <mxPoint x="1090" y="470" as="sourcePoint" />
            <mxPoint x="1230" y="470" as="targetPoint" />
            <mxPoint as="offset" />
            <Array as="points">
              <mxPoint x="1090" y="470" />
              <mxPoint x="1140" y="470" />
            </Array>
          </mxGeometry>
        </mxCell>
        <mxCell id="Zf3G7hdso3-D3wc9qhFH-29" value="" style="endArrow=classic;html=1;" edge="1" parent="Zf3G7hdso3-D3wc9qhFH-5">
          <mxGeometry relative="1" as="geometry">
            <mxPoint x="720" y="180" as="sourcePoint" />
            <mxPoint x="760" y="260" as="targetPoint" />
            <Array as="points">
              <mxPoint x="769" y="180" />
              <mxPoint x="769" y="211" />
            </Array>
          </mxGeometry>
        </mxCell>
        <mxCell id="Zf3G7hdso3-D3wc9qhFH-30" value="seek for token" style="edgeLabel;resizable=0;html=1;align=center;verticalAlign=middle;" connectable="0" vertex="1" parent="Zf3G7hdso3-D3wc9qhFH-29">
          <mxGeometry relative="1" as="geometry">
            <mxPoint x="25" as="offset" />
          </mxGeometry>
        </mxCell>
        <mxCell id="Zf3G7hdso3-D3wc9qhFH-49" value="Account creation" style="swimlane;childLayout=stackLayout;resizeParent=1;resizeParentMax=0;horizontal=0;startSize=20;horizontalStack=0;" vertex="1" parent="Zf3G7hdso3-D3wc9qhFH-5">
          <mxGeometry x="50" y="370" width="1010" height="500" as="geometry" />
        </mxCell>
        <mxCell id="Zf3G7hdso3-D3wc9qhFH-50" value="Account exists" style="swimlane;startSize=20;horizontal=0;" vertex="1" parent="Zf3G7hdso3-D3wc9qhFH-49">
          <mxGeometry x="20" width="990" height="260" as="geometry" />
        </mxCell>
        <mxCell id="Zf3G7hdso3-D3wc9qhFH-51" value="No account" style="swimlane;startSize=20;horizontal=0;" vertex="1" parent="Zf3G7hdso3-D3wc9qhFH-49">
          <mxGeometry x="20" y="260" width="990" height="120" as="geometry" />
        </mxCell>
        <mxCell id="Zf3G7hdso3-D3wc9qhFH-52" value="Lane 3" style="swimlane;startSize=20;horizontal=0;" vertex="1" parent="Zf3G7hdso3-D3wc9qhFH-49">
          <mxGeometry x="20" y="380" width="990" height="120" as="geometry" />
        </mxCell>
        <mxCell id="3nuBFxr9cyL0pnOWT2aG-7" value="return" style="verticalAlign=bottom;endArrow=open;dashed=1;endSize=8;shadow=0;strokeWidth=1;" parent="Zf3G7hdso3-D3wc9qhFH-5" edge="1">
          <mxGeometry relative="1" as="geometry">
            <mxPoint x="1110" y="530" as="targetPoint" />
            <mxPoint x="1260" y="530" as="sourcePoint" />
          </mxGeometry>
        </mxCell>
        <mxCell id="Zf3G7hdso3-D3wc9qhFH-6" value="email" style="swimlane;startSize=20;horizontal=0;" vertex="1" parent="Zf3G7hdso3-D3wc9qhFH-4">
          <mxGeometry x="20" y="910" width="1340" height="90" as="geometry" />
        </mxCell>
        <mxCell id="Zf3G7hdso3-D3wc9qhFH-10" value="nickname" style="swimlane;startSize=20;horizontal=0;" vertex="1" parent="Zf3G7hdso3-D3wc9qhFH-4">
          <mxGeometry x="20" y="1000" width="1340" height="130" as="geometry" />
        </mxCell>
        <mxCell id="Zf3G7hdso3-D3wc9qhFH-7" value="just click" style="swimlane;startSize=20;horizontal=0;" vertex="1" parent="Zf3G7hdso3-D3wc9qhFH-4">
          <mxGeometry x="20" y="1130" width="1340" height="130" as="geometry" />
        </mxCell>
        <mxCell id="Zf3G7hdso3-D3wc9qhFH-22" value="App&#xa;Front-end" style="shape=umlLifeline;perimeter=lifelinePerimeter;container=1;collapsible=0;recursiveResize=0;rounded=0;shadow=0;strokeWidth=1;" vertex="1" parent="1">
          <mxGeometry x="470" y="80" width="100" height="890" as="geometry" />
        </mxCell>
        <mxCell id="Zf3G7hdso3-D3wc9qhFH-23" value="" style="points=[];perimeter=orthogonalPerimeter;rounded=0;shadow=0;strokeWidth=1;" vertex="1" parent="Zf3G7hdso3-D3wc9qhFH-22">
          <mxGeometry x="45" y="80" width="10" height="550" as="geometry" />
        </mxCell>
        <mxCell id="Zf3G7hdso3-D3wc9qhFH-26" value="Validate input" style="verticalAlign=bottom;endArrow=block;shadow=0;strokeWidth=1;entryX=0.067;entryY=0.123;entryDx=0;entryDy=0;entryPerimeter=0;exitX=1.024;exitY=0.497;exitDx=0;exitDy=0;exitPerimeter=0;" edge="1" parent="Zf3G7hdso3-D3wc9qhFH-22" source="3nuBFxr9cyL0pnOWT2aG-6">
          <mxGeometry x="0.0303" relative="1" as="geometry">
            <mxPoint x="-110" y="220" as="sourcePoint" />
            <mxPoint x="45.67000000000007" y="219.66000000000003" as="targetPoint" />
            <mxPoint as="offset" />
          </mxGeometry>
        </mxCell>
        <mxCell id="Zf3G7hdso3-D3wc9qhFH-41" value="" style="endArrow=classic;html=1;" edge="1" parent="Zf3G7hdso3-D3wc9qhFH-22">
          <mxGeometry relative="1" as="geometry">
            <mxPoint x="55" y="240" as="sourcePoint" />
            <mxPoint x="55" y="271" as="targetPoint" />
            <Array as="points">
              <mxPoint x="104" y="240" />
              <mxPoint x="104" y="271" />
            </Array>
          </mxGeometry>
        </mxCell>
        <mxCell id="Zf3G7hdso3-D3wc9qhFH-42" value="user input=phone number" style="edgeLabel;resizable=0;html=1;align=center;verticalAlign=middle;" connectable="0" vertex="1" parent="Zf3G7hdso3-D3wc9qhFH-41">
          <mxGeometry relative="1" as="geometry">
            <mxPoint x="25" as="offset" />
          </mxGeometry>
        </mxCell>
        <mxCell id="Zf3G7hdso3-D3wc9qhFH-43" value="" style="endArrow=classic;html=1;" edge="1" parent="Zf3G7hdso3-D3wc9qhFH-22">
          <mxGeometry relative="1" as="geometry">
            <mxPoint x="55" y="290" as="sourcePoint" />
            <mxPoint x="55" y="321" as="targetPoint" />
            <Array as="points">
              <mxPoint x="104" y="290" />
              <mxPoint x="104" y="321" />
            </Array>
          </mxGeometry>
        </mxCell>
        <mxCell id="Zf3G7hdso3-D3wc9qhFH-44" value="validate phone number" style="edgeLabel;resizable=0;html=1;align=center;verticalAlign=middle;" connectable="0" vertex="1" parent="Zf3G7hdso3-D3wc9qhFH-43">
          <mxGeometry relative="1" as="geometry">
            <mxPoint x="25" as="offset" />
          </mxGeometry>
        </mxCell>
        <mxCell id="Zf3G7hdso3-D3wc9qhFH-38" value="App&#xa;Back-end" style="shape=umlLifeline;perimeter=lifelinePerimeter;container=1;collapsible=0;recursiveResize=0;rounded=0;shadow=0;strokeWidth=1;" vertex="1" parent="1">
          <mxGeometry x="650" y="80" width="100" height="890" as="geometry" />
        </mxCell>
        <mxCell id="Zf3G7hdso3-D3wc9qhFH-39" value="" style="points=[];perimeter=orthogonalPerimeter;rounded=0;shadow=0;strokeWidth=1;" vertex="1" parent="Zf3G7hdso3-D3wc9qhFH-38">
          <mxGeometry x="45" y="230" width="10" height="420" as="geometry" />
        </mxCell>
        <mxCell id="Zf3G7hdso3-D3wc9qhFH-27" value="" style="endArrow=classic;html=1;" edge="1" parent="Zf3G7hdso3-D3wc9qhFH-38">
          <mxGeometry relative="1" as="geometry">
            <mxPoint x="55.5" y="390" as="sourcePoint" />
            <mxPoint x="55.5" y="421" as="targetPoint" />
            <Array as="points">
              <mxPoint x="104.5" y="390" />
              <mxPoint x="104.5" y="421" />
            </Array>
          </mxGeometry>
        </mxCell>
        <mxCell id="Zf3G7hdso3-D3wc9qhFH-28" value="seek for account" style="edgeLabel;resizable=0;html=1;align=center;verticalAlign=middle;" connectable="0" vertex="1" parent="Zf3G7hdso3-D3wc9qhFH-27">
          <mxGeometry relative="1" as="geometry">
            <mxPoint x="25" as="offset" />
          </mxGeometry>
        </mxCell>
        <mxCell id="Zf3G7hdso3-D3wc9qhFH-55" value="" style="endArrow=classic;html=1;" edge="1" parent="Zf3G7hdso3-D3wc9qhFH-38">
          <mxGeometry relative="1" as="geometry">
            <mxPoint x="55" y="460" as="sourcePoint" />
            <mxPoint x="55" y="491" as="targetPoint" />
            <Array as="points">
              <mxPoint x="104" y="460" />
              <mxPoint x="104" y="491" />
            </Array>
          </mxGeometry>
        </mxCell>
        <mxCell id="Zf3G7hdso3-D3wc9qhFH-56" value="seek for refresh token" style="edgeLabel;resizable=0;html=1;align=center;verticalAlign=middle;" connectable="0" vertex="1" parent="Zf3G7hdso3-D3wc9qhFH-55">
          <mxGeometry relative="1" as="geometry">
            <mxPoint x="25" as="offset" />
          </mxGeometry>
        </mxCell>
      </root>
    </mxGraphModel>
  </diagram>
</mxfile>
